<?xml version="1.0" encoding="UTF-8" standalone="no"?>
<!--Generator: Apple Native CoreSVG 232.5-->

<svg
   version="1.1"
   width="20.2832"
   height="19.9316"
   id="svg1"
   sodipodi:docname="coyote.svg"
   inkscape:version="1.3.2 (091e20e, 2023-11-25)"
   xmlns:inkscape="http://www.inkscape.org/namespaces/inkscape"
   xmlns:sodipodi="http://sodipodi.sourceforge.net/DTD/sodipodi-0.dtd"
   xmlns="http://www.w3.org/2000/svg"
   xmlns:svg="http://www.w3.org/2000/svg">
  <defs
     id="defs1" />
  <sodipodi:namedview
     id="namedview1"
     pagecolor="#ffffff"
     bordercolor="#000000"
     borderopacity="0.25"
     inkscape:showpageshadow="2"
     inkscape:pageopacity="0.0"
     inkscape:pagecheckerboard="0"
     inkscape:deskcolor="#d1d1d1"
     inkscape:zoom="5.9202471"
     inkscape:cx="10.38808"
     inkscape:cy="10.38808"
     inkscape:window-width="1440"
     inkscape:window-height="762"
     inkscape:window-x="0"
     inkscape:window-y="25"
     inkscape:window-maximized="1"
     inkscape:current-layer="svg1" />
  <g
     id="g1"
     style="display:none">
    <rect
       height="19.931601"
       opacity="0"
       width="20.283199"
       x="0"
       y="0"
       id="rect1" />
    <path
       d="m 19.9219,9.96094 c 0,5.43946 -4.5117,9.96096 -9.96096,9.96096 C 4.52148,19.9219 0,15.4004 0,9.96094 0,4.51172 4.51172,0 9.95117,0 15.4004,0 19.9219,4.51172 19.9219,9.96094 Z m -13.51565,0 c 0,2.87106 1.42578,4.79496 3.55469,4.79496 2.13866,0 3.56446,-1.9239 3.56446,-4.79496 0,-2.8711 -1.4258,-4.79492 -3.56446,-4.79492 -2.12891,0 -3.55469,1.92382 -3.55469,4.79492 z m 5.56645,0 c 0,2.09956 -0.8106,3.49606 -2.01176,3.49606 -1.20117,0 -2.01172,-1.3965 -2.01172,-3.49606 0,-2.09961 0.81055,-3.4961 2.01172,-3.4961 1.20116,0 2.01176,1.39649 2.01176,3.4961 z"
       fill="#000000"
       fill-opacity="0.85"
       id="path1" />
  </g>
  <path
     style="display:inline;fill:#000000;stroke:#000000;stroke-width:0.565357;stroke-dasharray:none;stroke-opacity:1"
     d="m 8.6938414,19.826224 c -0.1168864,-0.08767 -0.1132877,-0.09542 0.023081,-0.04967 0.2036889,0.06832 0.2021709,0.04228 -0.023081,-0.39592 -0.4790382,-0.931922 -0.00469,-1.372757 1.4771016,-1.372757 1.481796,0 1.95614,0.440835 1.477101,1.372757 -0.22518,0.438068 -0.22659,0.462595 -0.02308,0.402023 0.08886,-0.02644 0.06769,0.0034 -0.04704,0.06627 -0.302494,0.165828 -0.348094,0.04501 -0.125045,-0.331283 0.242601,-0.409286 0.254728,-0.942439 0.02634,-1.157946 -0.138166,-0.130375 -0.378674,-0.159307 -1.324314,-0.159307 -1.002174,0 -1.1757609,0.02335 -1.3082744,0.176031 -0.2067602,0.238216 -0.191638,0.7716 0.03185,1.123456 0.1008815,0.158827 0.1836948,0.321263 0.1840296,0.360969 8.991e-4,0.105243 -0.2083963,0.08559 -0.3686674,-0.03462 z M 8.0717365,19.523938 C 7.908723,19.404819 7.7118392,19.143687 7.6342175,18.943647 7.5045565,18.609495 7.5088012,18.488238 7.6864496,17.451642 7.7927992,16.831081 7.8967952,16.305301 7.917552,16.283241 c 0.073465,-0.07808 0.027456,0.340427 -0.1408266,1.280984 -0.1155375,0.645755 -0.1446291,1.045608 -0.090416,1.242708 0.090199,0.327923 0.4262265,0.741071 0.602741,0.741071 0.064316,0 0.1426125,0.04332 0.1739934,0.09626 0.095798,0.161619 -0.079049,0.107854 -0.3913077,-0.120324 z m 3.8071045,0.120324 c 0.03138,-0.05294 0.109678,-0.09626 0.173993,-0.09626 0.192836,0 0.53486,-0.446773 0.603127,-0.787843 0.03752,-0.187472 -0.0032,-0.696386 -0.09864,-1.233583 -0.161311,-0.907695 -0.205449,-1.320344 -0.13299,-1.243337 0.02076,0.02206 0.124753,0.54784 0.231102,1.168401 0.177168,1.033791 0.181631,1.158757 0.0533,1.492005 -0.07704,0.20004 -0.277076,0.461172 -0.444533,0.580291 -0.323491,0.230114 -0.479269,0.278753 -0.385361,0.120324 z M 5.8418272,16.079095 C 5.6883332,15.544913 5.187293,15.14153 3.1601699,13.920118 2.6300312,13.60069 2.181152,13.28887 2.1626607,13.227185 c -0.01849,-0.06169 0.048612,-0.139367 0.1491195,-0.172628 0.1005068,-0.03326 0.3361534,-0.169027 0.5236591,-0.301702 0.1875056,-0.132675 0.359044,-0.222328 0.3811965,-0.199231 0.022151,0.02309 -0.2007805,0.195725 -0.495406,0.383615 -0.4617697,0.294481 -0.5102197,0.351623 -0.3511374,0.41413 0.4165788,0.163683 2.6363192,1.604977 3.0341177,1.970078 0.2355585,0.216193 0.4538956,0.499463 0.4851939,0.629489 0.031297,0.130026 0.097878,0.222171 0.1479547,0.204765 0.1097506,-0.03814 1.6409752,-3.482534 1.6409752,-3.691265 0,-0.08123 -0.1852986,-0.232098 -0.4154346,-0.338243 -0.2284891,-0.105384 -0.4154345,-0.214159 -0.4154345,-0.241719 0,-0.08835 0.4069384,0.07813 0.6783121,0.277503 0.329387,0.241986 0.3074816,0.385461 -0.246157,1.612264 -0.8515644,1.886975 -1.0783869,2.411297 -1.0783869,2.492791 0,0.04612 -0.056768,0.106561 -0.1261508,0.134323 -0.084458,0.03379 -0.1615477,-0.07271 -0.233255,-0.32226 z m 8.4142248,0.317737 c -0.06347,-0.02277 -0.1154,-0.08015 -0.1154,-0.127522 0,-0.08363 -0.223407,-0.600527 -1.078386,-2.495069 -0.553638,-1.226803 -0.575543,-1.370278 -0.246158,-1.612264 0.271375,-0.199368 0.678313,-0.36585 0.678313,-0.277503 0,0.02756 -0.186946,0.136335 -0.415435,0.241719 -0.230136,0.106145 -0.415435,0.257013 -0.415435,0.338243 0,0.208731 1.531226,3.653121 1.640975,3.691265 0.05008,0.01741 0.116657,-0.07474 0.147955,-0.204765 0.0313,-0.130026 0.249637,-0.413296 0.485194,-0.629489 0.397799,-0.365101 2.617539,-1.806395 3.034119,-1.970078 0.159082,-0.0625 0.110632,-0.119649 -0.351137,-0.41413 -0.294626,-0.18789 -0.517559,-0.360518 -0.495406,-0.383615 0.02215,-0.02309 0.19369,0.06656 0.381195,0.199231 0.187506,0.132675 0.423153,0.26844 0.52366,0.301702 0.100507,0.03326 0.16761,0.110943 0.149119,0.172628 -0.01849,0.06169 -0.467455,0.372052 -0.997697,0.689705 -1.155429,0.692184 -2.203981,1.411668 -2.419953,1.660499 -0.08649,0.09965 -0.209648,0.3341 -0.273688,0.521007 -0.06735,0.196556 -0.16509,0.322379 -0.231835,0.298436 z M 7.9720881,15.938316 c 5.391e-4,-0.158827 0.05697,-0.505357 0.1254648,-0.770068 l 0.1245376,-0.481291 -0.050463,0.510806 c -0.027753,0.280943 -0.084214,0.627473 -0.1254649,0.770067 l -0.075002,0.25926 z m 4.2342609,-0.415384 c -0.06348,-0.387287 -0.0955,-0.724935 -0.07114,-0.750331 0.06406,-0.06679 0.278242,1.178954 0.228435,1.328653 -0.02303,0.06921 -0.09381,-0.191035 -0.15729,-0.578322 z M 8.2879776,14.117859 c 0.029487,-0.313003 0.090152,-0.659533 0.1348082,-0.770066 0.1010153,-0.250034 -7.207e-4,0.750201 -0.1117285,1.098518 -0.048139,0.151043 -0.056732,0.02875 -0.023081,-0.328452 z m 3.6851974,0.11187 c -0.13744,-0.931316 -0.148139,-1.092962 -0.05837,-0.881936 0.101177,0.237849 0.237759,1.291034 0.167428,1.291034 -0.02678,0 -0.07585,-0.184094 -0.109056,-0.409098 z M 8.5373394,12.447427 c 0.00297,-0.391312 0.037995,-0.645722 0.079498,-0.577551 0.090985,0.149458 0.083884,0.710804 -0.013109,1.0363 -0.047934,0.160862 -0.069945,0.0088 -0.066389,-0.458749 z m 3.1684036,0.35046 c -0.07813,-0.40731 -0.07036,-0.780723 0.0193,-0.928011 0.04193,-0.06889 0.0794,0.171694 0.08619,0.553486 0.0066,0.371433 -0.0014,0.675332 -0.01789,0.675332 -0.01645,0 -0.05587,-0.135364 -0.0876,-0.300807 z M 1.9330579,12.429528 C 1.1470203,12.395356 0.53020452,12.325862 0.4717121,12.264873 0.39830593,12.188336 0.57676061,11.87185 1.1212403,11.112948 1.9513322,9.9559573 2.8140625,8.251151 2.9727119,7.4543308 3.0847993,6.8913696 3.2101199,6.7373716 3.128289,7.2631522 2.9860165,8.1772893 2.1312478,9.8801234 1.1078598,11.288168 c -0.29594134,0.407175 -0.53807557,0.782497 -0.53807557,0.834047 0,0.130175 1.24903947,0.239341 2.13003067,0.186166 0.569849,-0.03439 0.7318531,-0.01574 0.7318531,0.08429 0,0.07066 -0.031158,0.121158 -0.069239,0.112222 -0.03808,-0.0089 -0.6812986,-0.04285 -1.429371,-0.07537 z m 14.9771601,-0.053 c 0,-0.07986 0.211509,-0.09956 0.731853,-0.06815 0.880991,0.05317 2.130031,-0.05599 2.130031,-0.186165 0,-0.05155 -0.242135,-0.426872 -0.538076,-0.834047 -1.023388,-1.4080449 -1.878157,-3.110879 -2.02043,-4.0250161 -0.08183,-0.5257806 0.04349,-0.3717826 0.155579,0.1911786 0.158648,0.7968202 1.021378,2.5016265 1.85147,3.6586165 0.514638,0.717307 0.720865,1.077546 0.655739,1.14545 -0.05225,0.05448 -0.522911,0.115165 -1.045911,0.134852 -0.522999,0.01969 -1.16901,0.04925 -1.435581,0.0657 -0.324171,0.02 -0.484674,-0.0073 -0.484674,-0.08242 z M 5.8808414,11.514209 C 5.476137,11.336208 5.1321994,11.150484 5.1165358,11.101488 c -0.025444,-0.07959 0.1682359,0.0026 1.3616534,0.577799 0.5930102,0.28582 0.1485729,0.162998 -0.5973478,-0.165078 z m 7.9828546,0.172189 c 0.921851,-0.464602 1.38729,-0.665102 1.362268,-0.586832 -0.01533,0.04794 -0.317635,0.214631 -0.671801,0.370426 -0.732224,0.322102 -1.176424,0.461324 -0.690467,0.216406 z M 8.186088,11.364506 C 7.9235653,11.092831 4.6237806,8.839615 4.5702233,8.8954574 c -0.013921,0.014513 0.0981,0.4300383 0.248936,0.923384 0.2634849,0.8617906 0.3267207,1.1527096 0.2282403,1.0500266 -0.04916,-0.05126 -0.597404,-1.9083528 -0.5991721,-2.0296065 -0.00233,-0.1605648 0.2320937,-0.030043 1.6764228,0.9333664 1.9431789,1.2961531 2.1800873,1.4711831 2.2954114,1.6958641 0.1281678,0.249701 0.092469,0.233836 -0.2339737,-0.103986 z m 3.725413,0.12805 c 0.125696,-0.249578 0.331069,-0.402772 2.305734,-1.7199281 1.44433,-0.963407 1.678764,-1.0939312 1.676424,-0.9333664 -0.0018,0.1212537 -0.550013,1.9783485 -0.599173,2.0296065 -0.09848,0.102683 -0.03524,-0.188236 0.228241,-1.0500266 0.150835,-0.4933457 0.262856,-0.9088679 0.248936,-0.923384 -0.05354,-0.055827 -3.355172,2.2001436 -3.652516,2.4957336 -0.231921,0.230552 -0.286007,0.256955 -0.207646,0.101365 z M 3.205227,6.0718343 C 3.2263228,5.6218266 3.2680443,4.2140481 3.2979398,2.943438 3.3278354,1.6728278 3.3827392,0.60062441 3.419947,0.56076326 3.4571563,0.52090332 4.1293228,0.90655965 4.9136543,1.4177792 7.2292795,2.9270804 7.9824346,3.3947543 8.3245659,3.5357954 l 1.1589312,0.041467 -1.1399893,0.043339 C 8.1679897,3.6272739 7.0890515,2.9518421 5.8252172,2.1267861 4.6074523,1.3318057 3.5756601,0.6813673 3.5323448,0.6813673 c -0.043314,0 -0.1093467,1.2543402 -0.1467369,2.7874231 C 3.3482194,5.0018731 3.2837057,6.3988226 3.2422483,6.573122 3.1923256,6.7830125 3.1798236,6.6137348 3.2052277,6.0718347 Z m 13.858659,0.3654155 c -0.02927,-0.2274495 -0.08125,-1.6155709 -0.115517,-3.0847139 -0.03427,-1.4691431 -0.09725,-2.6711691 -0.139945,-2.6711691 -0.0427,0 -1.073991,0.6504384 -2.291755,1.4454189 -1.263835,0.825056 -2.344666,1.4661902 -2.518291,1.4938151 l -1.535902,0.00253 1.554844,-0.087334 c 0.367368,-0.020635 1.095287,-0.608715 3.410912,-2.1180161 0.784331,-0.51121953 1.45673,-0.89687665 1.494221,-0.85701549 0.06122,0.0650857 0.274664,6.19279689 0.218109,6.26151949 -0.0129,0.01568 -0.04741,-0.1575848 -0.07668,-0.3850336 z M 9.6401097,3.5942418 c 0.2919584,-0.019103 0.7697083,-0.019103 1.0616663,0 0.291958,0.019103 0.05308,0.034732 -0.530833,0.034732 -0.5839172,0 -0.8227918,-0.01563 -0.5308333,-0.034732 z"
     id="path1-4"
     sodipodi:nodetypes="sssssscssssssssssssssssssscsssssssssssssssssssssssssssssssssssssssssssscscssccsssssssssssssssssssssssssssssssssssssssssssssssssssssssssssssssssssssssscssssssssssscsssssssss" />
</svg>
